HIERARCHY
ROOT Hips
{
	OFFSET -0.179506 -22.333345 2.821913
	CHANNELS 6 Xposition Yposition Zposition Zrotation Yrotation Xrotation 
	JOINT LeftUpLeg
	{
		OFFSET 6.951974 -9.140623 -0.681533
		CHANNELS 3 Zrotation Yrotation Xrotation
		JOINT LeftLeg
		{
			OFFSET 3.427654 -37.519855 -0.449580
			CHANNELS 3 Zrotation Yrotation Xrotation
			JOINT LeftFoot
			{
				OFFSET -1.359570 -39.796059 -4.369333
				CHANNELS 3 Zrotation Yrotation Xrotation
				JOINT LeftToe
				{
					OFFSET 2.635814 -5.579078 11.928840
					CHANNELS 3 Zrotation Yrotation Xrotation
					End Site
					{
						OFFSET 0.000000 0.000000 0.000000
					}
				}
			}
		}
	}
	JOINT RightUpLeg
	{
		OFFSET -6.767048 -9.052170 -0.431982
		CHANNELS 3 Zrotation Yrotation Xrotation
		JOINT RightLeg
		{
			OFFSET -3.829005 -38.256897 -0.885003
			CHANNELS 3 Zrotation Yrotation Xrotation
			JOINT RightFoot
			{
				OFFSET 1.577377 -39.841461 -4.231180
				CHANNELS 3 Zrotation Yrotation Xrotation
				JOINT RightToe
				{
					OFFSET -2.537174 -4.814398 12.334795
					CHANNELS 3 Zrotation Yrotation Xrotation
					End Site
					{
						OFFSET 0.000000 0.000000 0.000000
					}
				}
			}
		}
	}
	JOINT Spine
	{
		OFFSET -0.253288 10.896323 -2.669631
		CHANNELS 3 Zrotation Yrotation Xrotation
		JOINT Spine1
		{
			OFFSET 0.548704 13.518043 0.109247
			CHANNELS 3 Zrotation Yrotation Xrotation
			JOINT Spine2
			{
				OFFSET 0.145701 5.292222 2.542457
				CHANNELS 3 Zrotation Yrotation Xrotation
				JOINT Neck
				{
					OFFSET -0.277840 21.387037 -4.285703
					CHANNELS 3 Zrotation Yrotation Xrotation
					JOINT Head
					{
						OFFSET 0.515184 6.496960 5.134897
						CHANNELS 3 Zrotation Yrotation Xrotation
						End Site
						{
							OFFSET 0.000000 0.000000 0.000000
						}
					}
				}
				JOINT LeftShoulder
				{
					OFFSET 7.884473 12.174932 -3.408961
					CHANNELS 3 Zrotation Yrotation Xrotation
					JOINT LeftArm
					{
						OFFSET 9.097692 3.046888 -0.886815
						CHANNELS 3 Zrotation Yrotation Xrotation
						JOINT LeftForeArm
						{
							OFFSET 25.961220 -1.277207 -2.745643
							CHANNELS 3 Zrotation Yrotation Xrotation
							JOINT LeftHand
							{
								OFFSET 24.923361 0.898606 -0.117091
								CHANNELS 3 Zrotation Yrotation Xrotation
								End Site
								{
									OFFSET 0.000000 0.000000 0.000000
								}
							}
						}
					}
				}
				JOINT RightShoulder
				{
					OFFSET -8.175920 11.883285 -3.861528
					CHANNELS 3 Zrotation Yrotation Xrotation
					JOINT RightArm
					{
						OFFSET -9.601238 3.255117 -0.914307
						CHANNELS 3 Zrotation Yrotation Xrotation
						JOINT RightForeArm
						{
							OFFSET -25.374195 -1.332924 -2.140099
							CHANNELS 3 Zrotation Yrotation Xrotation
							JOINT RightHand
							{
								OFFSET -25.529810 0.777228 -0.555919
								CHANNELS 3 Zrotation Yrotation Xrotation
								End Site
								{
									OFFSET 0.000000 0.000000 0.000000
								}
							}
						}
					}
				}
			}
		}
	}
}
MOTION
Frames: 17
Frame Time: 0.033333
-98.774368 63.730534 99.633881 89.997088 -48.504450 96.545080 50.729963 19.967361 -28.753245 -12.634642 4.716736 88.675414 -11.145668 2.090750 -30.206581 nan nan nan -39.320550 -17.375404 -24.404837 -1.492739 -5.024266 27.664544 -1.682076 0.620912 -24.702400 nan nan nan -6.175057 -2.919630 18.598214 -7.147743 -5.059178 7.364874 -7.497571 4.977371 -8.394858 -9.163426 39.098063 12.330703 -12.060272 17.310626 5.803520 -22.469608 1.259935 1.962313 -38.167808 -9.593450 14.092497 116.938964 -69.924943 -105.776640 50.263222 -21.685173 -51.791433 23.601083 5.019951 14.316595 48.186954 2.934317 10.461384 0.999819 54.159835 12.817831 -41.619851 19.671131 -31.275656 
-99.036682 63.582848 99.504723 92.212537 -47.974047 95.592926 50.199171 20.613625 -30.420340 -12.140592 6.913642 93.153329 -11.135730 0.981756 -30.547188 nan nan nan -38.949726 -17.642433 -23.889882 -1.678265 -6.637087 27.495488 -2.099189 0.253602 -24.503636 nan nan nan -6.097492 -2.134910 18.672833 -6.928676 -4.626827 7.822184 -7.390087 5.319510 -8.917406 -8.439567 38.444667 13.150926 -11.828660 15.944019 6.150331 -22.933730 1.130476 2.265425 -39.030324 -10.221011 14.694582 117.539483 -69.769743 -105.772588 48.436937 -24.002271 -51.903347 24.794634 6.224529 14.166875 49.710518 4.624583 11.167959 -0.460486 53.678999 11.463452 -38.311544 20.042267 -30.671470 
-99.194077 63.367554 99.347893 94.453989 -47.583102 94.550180 49.307651 21.279966 -31.870516 -12.072864 9.071100 97.492101 -11.286224 -0.162064 -31.249720 nan nan nan -38.560940 -17.886149 -23.304425 -2.048524 -7.719783 27.441088 -2.573426 -0.117668 -24.414835 nan nan nan -6.422498 -1.213397 18.825950 -6.621616 -4.301743 8.082766 -7.198496 5.740455 -9.459784 -7.483040 37.767449 14.239655 -11.553405 14.776794 6.683543 -23.263619 1.152867 2.631033 -39.921071 -10.733081 15.349815 118.878520 -69.676797 -106.616875 48.073639 -24.842780 -51.728481 26.172945 7.504058 14.524493 51.039927 6.498904 11.895287 -2.597407 53.312638 9.929730 -38.772353 20.464695 -30.261641 
-99.442024 63.098221 99.205803 97.455715 -47.054794 93.217647 48.015624 21.777795 -34.096308 -12.082955 11.256026 101.766326 -11.326570 -1.256217 -31.169479 nan nan nan -38.006683 -17.877091 -22.652175 -2.587471 -8.745591 27.513577 -2.935357 -0.805810 -24.550293 nan nan nan -6.608675 -0.407558 19.060357 -6.192981 -4.248442 7.728664 -6.947910 6.054304 -9.663961 -6.482603 36.828497 15.134875 -11.234734 13.747654 7.448247 -23.327342 1.327509 2.794980 -41.005646 -11.222207 16.017150 120.612130 -69.826379 -107.479928 47.936939 -24.985187 -51.066946 27.429007 8.689496 14.699877 52.186121 8.246735 12.930851 -4.750152 53.039965 8.757460 -40.725775 21.080957 -29.642901 
-99.589302 62.794125 99.049965 100.123395 -46.444190 92.079250 46.790105 22.158851 -35.681650 -12.239362 13.688134 105.577017 -11.285639 -2.739519 -30.987075 nan nan nan -37.250807 -17.737774 -22.126191 -3.132136 -9.345275 27.643786 -3.209798 -1.505408 -24.839078 nan nan nan -6.840244 0.587058 19.323232 -5.840998 -3.899484 6.965638 -6.629964 6.237688 -9.453027 -5.425822 35.770683 16.061920 -10.950126 12.583701 7.811591 -23.188632 1.503208 2.801382 -41.988235 -11.722745 16.830250 122.607726 -70.057478 -108.549933 47.093365 -25.142692 -49.859724 28.432191 9.745718 14.578878 53.225630 9.709906 13.960250 -6.236575 53.167084 7.844362 -39.968766 21.031827 -29.073179 
-99.843460 62.481655 98.889954 103.463702 -45.780250 90.714667 45.011305 22.387613 -37.977964 -12.337626 16.151508 109.263679 -11.336067 -4.141538 -30.883618 nan nan nan -36.481930 -17.819511 -21.727994 -3.749108 -9.967091 28.044564 -3.540994 -2.479547 -25.280075 nan nan nan -6.910784 1.419955 19.255883 -5.506328 -3.729790 6.670247 -6.437006 6.318377 -9.196067 -4.348365 34.602279 16.103194 -10.862193 11.428896 8.808607 -22.670663 1.572655 2.539527 -43.139348 -12.537777 17.810599 124.148121 -70.446075 -109.257492 47.188639 -24.966979 -49.071347 28.998757 10.870364 14.046852 54.208591 11.231050 15.151383 -7.784248 53.366039 6.427081 -41.445112 20.746948 -28.858332 
-99.975395 62.141766 98.734047 107.041812 -45.023647 89.229425 43.021001 22.486517 -40.078633 -11.983515 18.506726 112.685219 -11.340708 -5.632546 -30.760657 nan nan nan -35.788063 -17.739812 -21.046319 -4.340066 -10.876648 28.326848 -4.017302 -3.481224 -25.786851 nan nan nan -6.971643 2.216504 19.140440 -5.155661 -3.602191 6.228717 -6.178462 6.360682 -8.894121 -3.295270 33.398430 16.249265 -10.745358 10.451642 9.779776 -22.095425 1.629224 2.313012 -44.180775 -13.210006 18.725620 125.063985 -70.717102 -109.717987 46.561764 -25.340725 -49.585795 29.371579 11.824731 13.409132 55.043133 12.582146 16.270993 -9.238499 53.529671 5.011011 -41.132702 20.862857 -28.760879 
-99.973076 61.792469 98.659500 111.034865 -44.000970 87.146716 40.867791 22.277317 -41.829059 -11.204517 20.500359 115.957493 -11.305147 -6.815526 -30.242812 nan nan nan -35.147616 -17.607697 -19.456716 -4.717401 -12.005597 28.203570 -4.473263 -4.466394 -26.111993 nan nan nan -6.699694 2.892615 19.321616 -4.775842 -3.592912 5.891780 -5.898549 6.450113 -8.625947 -2.553441 31.962807 16.657864 -10.599787 9.645187 10.376370 -21.730428 1.423035 2.350731 -44.995205 -14.062875 19.327917 126.199181 -71.105758 -110.487127 46.449503 -25.572462 -50.220416 29.450302 12.560637 12.824475 55.666401 13.961759 16.874163 -10.376439 54.019599 3.981706 -43.121090 21.025429 -28.734474 
-100.192856 61.487274 98.579346 115.539818 -42.562316 85.388338 38.336962 21.962141 -44.672910 -10.107062 22.412735 119.273422 -11.233078 -7.394017 -29.564584 nan nan nan -34.255707 -17.736984 -18.261542 -4.898215 -13.521944 28.116946 -4.837711 -5.532979 -26.269934 nan nan nan -5.863800 3.134695 19.035643 -4.496172 -3.813115 5.087545 -5.655937 6.721003 -7.741970 -2.400323 30.241738 16.458881 -10.233599 9.075970 10.807353 -21.239216 0.972327 2.141827 -46.060702 -15.058835 19.850590 126.892603 -71.533585 -110.783928 45.306151 -26.409791 -50.074691 28.808464 13.238893 11.686780 56.169472 15.162556 17.067299 -10.557091 54.825962 3.427682 -40.922359 21.252026 -28.251266 
-100.331947 61.196457 98.470207 119.663619 -40.911058 83.967954 35.864771 21.619516 -46.948278 -9.126266 24.061143 122.162448 -10.994133 -8.168933 -29.089856 nan nan nan -33.209661 -17.838569 -17.098234 -4.923115 -15.182428 27.895614 -5.333724 -6.390923 -26.304884 nan nan nan -4.968429 3.407672 18.325962 -4.222680 -3.866499 4.827211 -5.432408 6.907905 -7.064323 -2.321457 28.517938 16.577120 -9.803472 8.245238 10.821510 -20.829582 0.578916 1.806813 -46.998553 -16.223968 20.438446 126.867320 -72.055632 -110.258371 43.961440 -27.205238 -49.527994 28.209904 13.841714 10.920759 56.317211 16.417283 16.910110 -12.050455 55.669848 2.804932 -39.668882 22.070226 -26.085418 
-100.322464 60.897625 98.461052 123.952695 -38.854025 81.984042 33.519050 20.934452 -48.418044 -8.356680 25.332389 124.478959 -10.348161 -8.742260 -28.528589 nan nan nan -32.037386 -17.945450 -14.909540 -4.570603 -16.694031 27.153350 -5.777434 -7.373763 -26.112308 nan nan nan -3.542614 3.617836 18.259246 -3.942429 -3.940075 4.710390 -5.296386 6.859579 -6.717892 -2.104317 26.723583 16.981060 -9.492961 7.307244 10.991421 -20.503661 0.206088 1.621988 -47.845702 -17.515031 20.849898 126.580958 -72.721530 -109.505490 41.330327 -28.182097 -47.751316 27.560364 14.327376 10.362934 56.242721 17.569218 16.532591 -13.483580 56.592079 1.978846 -38.034283 22.548420 -23.839191 
-100.302101 60.615131 98.437943 128.306416 -36.927955 80.366161 30.903211 19.909744 -49.666174 -7.448164 26.464972 126.229849 -10.179927 -8.969289 -27.698853 nan nan nan -31.101860 -18.204234 -12.967337 -4.125410 -18.460663 26.392888 -5.956665 -8.391650 -25.786586 nan nan nan -2.439955 3.917939 17.774363 -3.618489 -4.067425 4.576201 -5.066193 6.744622 -6.304350 -2.047229 24.812688 17.459014 -8.969208 6.537258 11.047461 -20.026598 -0.417858 1.750003 -48.580223 -18.766398 20.907193 126.688261 -73.349414 -109.404949 38.981663 -29.123717 -45.978008 26.616073 14.798855 9.461464 56.156786 18.231729 16.046381 -14.272338 57.503530 1.052456 -36.846149 22.919161 -22.397700 
-100.234009 60.321655 98.398552 132.490270 -35.107087 79.067194 28.290970 18.628895 -50.369931 -6.731524 27.409145 127.227528 -10.464065 -8.856137 -26.113907 nan nan nan -30.262077 -18.466840 -11.207243 -3.612124 -20.240479 25.534501 -6.103638 -9.321622 -25.335875 nan nan nan -1.731211 4.281205 17.124208 -3.249302 -4.158138 4.359857 -4.713264 6.730648 -5.892272 -2.280956 22.690462 18.082374 -8.094441 5.974997 10.821007 -19.480646 -1.400544 1.931500 -49.339631 -19.905438 21.192855 125.828307 -73.786085 -108.425039 39.092558 -29.259694 -46.465862 25.436180 15.244780 8.086987 55.963212 18.325016 15.624921 -14.523380 58.415136 0.394031 -36.056898 23.022143 -22.351676 
-100.176613 60.093277 98.361076 136.766336 -33.441485 77.978253 25.596254 16.973889 -50.758643 -6.175976 28.343130 127.583352 -10.889563 -8.757839 -23.792514 nan nan nan -29.735227 -18.987002 -9.408584 -2.897370 -22.103784 24.414574 -6.453914 -9.912915 -24.552044 nan nan nan -1.222023 4.576336 16.139674 -2.921382 -4.262235 4.410749 -4.412073 6.611090 -5.681270 -2.769508 20.415665 18.550622 -7.081761 5.560898 10.834809 -18.655908 -2.378240 1.968711 -50.858727 -21.169716 22.318909 122.204213 -73.633606 -104.469294 39.339567 -29.320161 -48.014928 24.081927 15.576390 6.970187 55.718321 18.470775 15.272849 -15.430867 59.180130 -0.695486 -34.805261 23.321746 -21.749450 
-100.030075 59.611275 98.436211 140.048974 -31.384245 76.583747 23.757484 15.850824 -49.389323 -6.117591 28.739996 127.169596 -11.430228 -8.631444 -21.053360 nan nan nan -28.282452 -19.236046 -7.221473 -2.374054 -22.917130 23.003075 -6.683365 -10.498002 -23.726558 nan nan nan -0.591765 5.078783 16.877809 -2.456672 -4.032059 3.864286 -3.986124 6.467935 -5.650089 -2.498458 18.693385 19.041061 -6.426860 4.405749 10.965396 -18.128286 -3.045000 1.608951 -51.775646 -22.764907 23.181510 119.541787 -74.202674 -101.714659 38.659529 -29.609595 -47.645072 23.206743 15.999613 5.909454 54.640242 18.509639 14.934850 -16.386896 59.935304 -2.291168 -33.712884 23.511631 -20.671501 
-99.903053 59.294899 98.520630 143.760156 -29.629258 75.355570 21.720399 14.264621 -48.032955 -5.714535 29.154523 126.492767 -11.786914 -8.119312 -18.294088 nan nan nan -27.521452 -19.616435 -5.105263 -1.587358 -23.875221 21.627197 -6.729611 -10.861306 -22.843261 nan nan nan -0.421824 5.502193 16.523228 -1.985854 -4.101592 4.243065 -3.514521 6.352305 -5.714191 -2.417418 16.887053 19.662219 -5.617444 3.440467 10.685230 -17.744014 -3.986063 1.259268 -52.402329 -24.287675 23.675027 117.508781 -74.958410 -99.956902 37.384834 -30.196212 -46.166086 22.224444 16.431947 4.717049 53.374889 18.223599 14.441858 -17.495104 60.871046 -4.657157 -32.022118 23.686175 -19.732048 
-99.738129 58.940155 98.624878 146.892140 -27.896243 74.533851 20.102518 13.196625 -46.097721 -5.448872 29.373177 125.290581 -12.281914 -7.599062 -15.584684 nan nan nan -26.371888 -19.639067 -3.439474 -0.868673 -24.233712 20.226510 -6.396129 -10.969706 -22.049436 nan nan nan -0.196692 6.080711 16.315765 -1.575031 -3.885487 4.462172 -3.048088 6.179587 -5.909306 -2.146081 15.203065 20.231317 -4.873999 2.384704 10.701113 -17.348516 -5.134904 0.913404 -53.099288 -25.564877 24.341373 114.930497 -75.369722 -97.721902 36.146058 -30.835592 -44.983756 21.180104 16.829982 3.485062 52.040147 17.569860 14.017147 -18.975735 61.867823 -7.371873 -30.220268 23.709437 -19.801954 
